<?xml version="1.0" standalone="no"?>
<!DOCTYPE svg PUBLIC "-//W3C//DTD SVG 20010904//EN"
 "http://www.w3.org/TR/2001/REC-SVG-20010904/DTD/svg10.dtd">
<svg version="1.0" xmlns="http://www.w3.org/2000/svg"
 width="400.000000pt" height="400.000000pt" viewBox="0 0 400.000000 400.000000"
 preserveAspectRatio="xMidYMid meet">
<metadata>
Created by potrace 1.11, written by Peter Selinger 2001-2013
</metadata>
<g transform="translate(0.000000,400.000000) scale(0.100000,-0.100000)"
fill="#000000" stroke="none">
<path d="M2401 3345 l-183 -325 -629 0 -629 0 0 -1065 0 -1065 1060 0 1060 0
0 226 c0 211 1 226 18 219 9 -4 119 -42 244 -85 l227 -79 -28 77 c-124 334
-396 1053 -425 1122 l-36 84 0 283 0 283 -114 0 -114 0 -127 318 c-71 174
-131 320 -135 325 -3 4 -88 -139 -189 -318z"/>
</g>
</svg>
